<svg width="100" height="100" viewBox="0 0 100 100" fill="none" xmlns="http://www.w3.org/2000/svg">
<g clip-path="url(#clip0)">
<path d="M100 18.9875C96.3208 20.6209 92.3667 21.7209 88.2167 22.2167C92.4542 19.6792 95.7083 15.6584 97.2375 10.8667C93.275 13.2167 88.8833 14.925 84.2083 15.8459C80.4708 11.8584 75.1333 9.3667 69.2333 9.3667C55.9875 9.3667 46.2542 21.725 49.2458 34.5542C32.2 33.7 17.0833 25.5334 6.9625 13.1209C1.5875 22.3417 4.175 34.4042 13.3083 40.5125C9.95 40.4042 6.78333 39.4834 4.02083 37.9459C3.79583 47.45 10.6083 56.3417 20.475 58.3209C17.5875 59.1042 14.425 59.2875 11.2083 58.6709C13.8167 66.8209 21.3917 72.75 30.375 72.9167C21.75 79.6792 10.8833 82.7 0 81.4167C9.07917 87.2375 19.8667 90.6334 31.45 90.6334C69.5417 90.6334 91.0625 58.4625 89.7625 29.6084C93.7708 26.7125 97.25 23.1 100 18.9875V18.9875Z" fill="white"/>
</g>
<defs>
<clipPath id="clip0">
<rect width="100" height="100" fill="white"/>
</clipPath>
</defs>
</svg>
